<svg width="24" height="16" viewBox="0 0 24 16" fill="none" xmlns="http://www.w3.org/2000/svg">
<path d="M9.89062 6.14062C10.4844 5.54688 11.1875 5.25 12 5.25C12.8125 5.25 13.5156 5.54688 14.1094 6.14062C14.7031 6.73438 15 7.4375 15 8.25C15 9.0625 14.7031 9.76562 14.1094 10.3594C13.5156 10.9531 12.8125 11.25 12 11.25C11.1875 11.25 10.4844 10.9531 9.89062 10.3594C9.29688 9.76562 9 9.0625 9 8.25C9 7.4375 9.29688 6.73438 9.89062 6.14062ZM8.4375 11.8125C9.4375 12.7812 10.625 13.2656 12 13.2656C13.375 13.2656 14.5469 12.7812 15.5156 11.8125C16.5156 10.8125 17.0156 9.625 17.0156 8.25C17.0156 6.875 16.5156 5.70312 15.5156 4.73438C14.5469 3.73438 13.375 3.23438 12 3.23438C10.625 3.23438 9.4375 3.73438 8.4375 4.73438C7.46875 5.70312 6.98438 6.875 6.98438 8.25C6.98438 9.625 7.46875 10.8125 8.4375 11.8125ZM5.29688 2.8125C7.29688 1.4375 9.53125 0.75 12 0.75C14.4688 0.75 16.7031 1.4375 18.7031 2.8125C20.7031 4.1875 22.1406 6 23.0156 8.25C22.1406 10.5 20.7031 12.3125 18.7031 13.6875C16.7031 15.0625 14.4688 15.75 12 15.75C9.53125 15.75 7.29688 15.0625 5.29688 13.6875C3.29688 12.3125 1.85938 10.5 0.984375 8.25C1.85938 6 3.29688 4.1875 5.29688 2.8125Z" fill="#AAAAAA"/>
</svg>
